<svg width="35" height="35" viewBox="0 0 35 35" fill="none" xmlns="http://www.w3.org/2000/svg">
<path d="M18.9583 10.2083H16.0416V16.0417H10.2083V18.9583H16.0416V24.7917H18.9583V18.9583H24.7916V16.0417H18.9583V10.2083ZM17.5 2.91667C9.44996 2.91667 2.91663 9.45 2.91663 17.5C2.91663 25.55 9.44996 32.0833 17.5 32.0833C25.55 32.0833 32.0833 25.55 32.0833 17.5C32.0833 9.45 25.55 2.91667 17.5 2.91667ZM17.5 29.1667C11.0687 29.1667 5.83329 23.9312 5.83329 17.5C5.83329 11.0688 11.0687 5.83333 17.5 5.83333C23.9312 5.83333 29.1666 11.0688 29.1666 17.5C29.1666 23.9312 23.9312 29.1667 17.5 29.1667Z" fill="#BBBBBB"/>
</svg>
