<svg width="617" height="29" viewBox="0 0 617 29" fill="none" xmlns="http://www.w3.org/2000/svg">
<path d="M11.3086 0.964844C13.1133 0.964844 14.7188 1.12305 16.125 1.43945C17.543 1.75586 18.7383 2.19531 19.7109 2.75781C20.6953 3.32031 21.4453 4 21.9609 4.79688C22.4766 5.58203 22.7344 6.44922 22.7344 7.39844V9.96484C22.7344 10.9727 22.5352 11.7871 22.1367 12.4082C21.75 13.0293 21.2109 13.5273 20.5195 13.9023C21.0938 14.0664 21.6211 14.2773 22.1016 14.5352C22.5938 14.793 23.0098 15.1094 23.3496 15.4844C23.7012 15.8477 23.9707 16.2754 24.1582 16.7676C24.3574 17.248 24.457 17.8047 24.457 18.4375V21.8828C24.457 22.832 24.1113 23.7051 23.4199 24.502C22.7285 25.2871 21.7852 25.9668 20.5898 26.541C19.3945 27.1152 18 27.5605 16.4062 27.877C14.8125 28.1934 13.1133 28.3516 11.3086 28.3516C10.3008 28.3516 9.26953 28.3105 8.21484 28.2285C7.16016 28.1582 6.13477 28.0586 5.13867 27.9297C4.1543 27.8008 3.22852 27.6543 2.36133 27.4902C1.49414 27.3262 0.75 27.1562 0.128906 26.9805V2.30078C0.75 2.125 1.49414 1.96094 2.36133 1.80859C3.22852 1.64453 4.1543 1.50391 5.13867 1.38672C6.13477 1.25781 7.16016 1.1582 8.21484 1.08789C9.26953 1.00586 10.3008 0.964844 11.3086 0.964844ZM11.168 16.3281C10.5352 16.3281 9.90234 16.334 9.26953 16.3457C8.63672 16.3457 8.02148 16.3633 7.42383 16.3984C6.83789 16.4219 6.27539 16.4629 5.73633 16.5215C5.19727 16.5801 4.71094 16.6562 4.27734 16.75V23.4297C4.51172 23.5117 4.81055 23.6055 5.17383 23.7109C5.54883 23.8164 6.01758 23.916 6.58008 24.0098C7.14258 24.1035 7.81641 24.1855 8.60156 24.2559C9.38672 24.3145 10.3125 24.3438 11.3789 24.3438C12.6914 24.3438 13.8691 24.2383 14.9121 24.0273C15.9668 23.8164 16.8516 23.5352 17.5664 23.1836C18.293 22.832 18.8496 22.4277 19.2363 21.9707C19.623 21.502 19.8164 21.0156 19.8164 20.5117V19C19.8164 18.4492 19.5703 17.998 19.0781 17.6465C18.5859 17.2949 17.9355 17.0254 17.127 16.8379C16.3184 16.6387 15.3926 16.5039 14.3496 16.4336C13.3184 16.3633 12.2578 16.3281 11.168 16.3281ZM4.27734 11.9688C5.00391 12.1094 5.83008 12.2031 6.75586 12.25C7.69336 12.2969 8.75391 12.3203 9.9375 12.3203C10.957 12.3203 11.9707 12.2852 12.9785 12.2148C13.9863 12.1328 14.8945 12.0039 15.7031 11.8281C16.5117 11.6406 17.168 11.3945 17.6719 11.0898C18.1758 10.7734 18.4336 10.375 18.4453 9.89453V8.76953C18.4453 8.26562 18.3223 7.78516 18.0762 7.32812C17.8418 6.85938 17.4434 6.44922 16.8809 6.09766C16.3301 5.74609 15.6035 5.46484 14.7012 5.25391C13.7988 5.04297 12.6914 4.9375 11.3789 4.9375C10.3125 4.9375 9.38672 4.97266 8.60156 5.04297C7.81641 5.10156 7.14258 5.17773 6.58008 5.27148C6.01758 5.36523 5.54883 5.46484 5.17383 5.57031C4.81055 5.67578 4.51172 5.76953 4.27734 5.85156V11.9688ZM41.332 0.542969C42.0586 0.542969 42.7969 0.619141 43.5469 0.771484C44.2969 0.912109 44.9648 1.10547 45.5508 1.35156C46.582 3.15625 47.5195 4.99609 48.3633 6.87109C49.2188 8.73438 49.9805 10.6562 50.6484 12.6367C51.1055 12.6953 51.5684 12.7598 52.0371 12.8301C52.5059 12.8887 52.9805 12.9531 53.4609 13.0234V17.5234L51.9492 17.1016C52.3711 18.8477 52.7285 20.6289 53.0215 22.4453C53.3145 24.2617 53.5312 26.1133 53.6719 28H49.4883C49.3125 25.9844 49.0195 23.9922 48.6094 22.0234C48.1992 20.0547 47.7305 18.168 47.2031 16.3633C46.0664 16.2695 44.9824 16.1992 43.9512 16.1523C42.9316 16.1055 42.0586 16.082 41.332 16.082C40.3594 16.082 39.3926 16.0996 38.4316 16.1348C37.4707 16.1699 36.5039 16.2344 35.5312 16.3281C35.0039 18.1328 34.5293 20.0195 34.1074 21.9883C33.6973 23.957 33.4102 25.9609 33.2461 28H29.0625C29.1914 26.1133 29.3965 24.2676 29.6777 22.4629C29.9707 20.6582 30.3281 18.8828 30.75 17.1367L29.3789 17.5234V13.0234L32.0859 12.6367C32.7422 10.6562 33.4922 8.73438 34.3359 6.87109C35.1914 4.99609 36.1406 3.15625 37.1836 1.35156C37.7695 1.10547 38.4316 0.912109 39.1699 0.771484C39.9082 0.619141 40.6289 0.542969 41.332 0.542969ZM41.332 12.1094C42.0352 12.1094 42.7617 12.1211 43.5117 12.1445C44.2617 12.1562 45.0352 12.1914 45.832 12.25C45.2344 10.6211 44.6426 9.20898 44.0566 8.01367C43.4824 6.80664 42.9844 5.875 42.5625 5.21875C42.3516 5.125 42.1523 5.06055 41.9648 5.02539C41.7773 4.99023 41.5664 4.97266 41.332 4.97266C40.957 4.97266 40.5703 5.05469 40.1719 5.21875C39.75 5.875 39.2461 6.80664 38.6602 8.01367C38.0742 9.20898 37.4883 10.6211 36.9023 12.25C37.6758 12.1914 38.4316 12.1562 39.1699 12.1445C39.9199 12.1211 40.6406 12.1094 41.332 12.1094ZM78.0703 21.0742V1.49219C79.0781 1.52734 80.0215 1.5918 80.9004 1.68555C81.791 1.76758 82.5762 1.85547 83.2559 1.94922C84.041 2.06641 84.7734 2.18359 85.4531 2.30078V6.76562C84.5156 6.48438 83.4375 6.23828 82.2188 6.02734V23.7461C82.8516 23.6523 83.4316 23.541 83.959 23.4121C84.498 23.2832 84.9961 23.1484 85.4531 23.0078V27.1562C84.6094 27.2969 83.8418 27.4141 83.1504 27.5078C82.459 27.6016 81.8145 27.6777 81.2168 27.7363C80.6309 27.7949 80.0801 27.8418 79.5645 27.877C79.0488 27.9121 78.5508 27.9414 78.0703 27.9648L66.293 8.41797V27.9648C65.8125 27.9414 65.3145 27.9121 64.7988 27.877C64.2832 27.8418 63.7324 27.7949 63.1465 27.7363C62.5605 27.6777 61.9219 27.6016 61.2305 27.5078C60.5391 27.4141 59.7773 27.2969 58.9453 27.1562V22.6914C59.8125 22.9727 60.8906 23.2188 62.1797 23.4297V5.67578C61.5586 5.78125 60.9785 5.89844 60.4395 6.02734C59.9004 6.15625 59.4023 6.28516 58.9453 6.41406V2.30078C59.6016 2.18359 60.3223 2.06641 61.1074 1.94922C61.7754 1.85547 62.5547 1.76758 63.4453 1.68555C64.3359 1.5918 65.2852 1.52734 66.293 1.49219L78.0703 21.0742ZM97.9336 11.4062C98.3906 11.5 98.8535 11.5645 99.3223 11.5996C99.791 11.6348 100.266 11.6523 100.746 11.6523C102.293 11.6523 103.559 11.3887 104.543 10.8613C105.527 10.334 106.301 9.60742 106.863 8.68164C107.426 7.75586 107.818 6.66602 108.041 5.41211C108.264 4.14648 108.387 2.78125 108.41 1.31641C109.418 1.36328 110.367 1.43359 111.258 1.52734C112.148 1.60938 112.939 1.69727 113.631 1.79102C114.428 1.89648 115.172 2.00781 115.863 2.125V6.58984C115.688 6.53125 115.459 6.4668 115.178 6.39648C114.908 6.32617 114.604 6.25586 114.264 6.18555C113.936 6.10352 113.578 6.02734 113.191 5.95703C112.816 5.875 112.43 5.79297 112.031 5.71094C111.949 6.46094 111.826 7.20508 111.662 7.94336C111.51 8.66992 111.293 9.36719 111.012 10.0352C110.73 10.7031 110.373 11.3184 109.939 11.8809C109.518 12.4316 108.996 12.9062 108.375 13.3047C109.195 13.5742 109.922 13.9727 110.555 14.5C111.188 15.0273 111.732 15.6367 112.189 16.3281C112.658 17.0078 113.045 17.752 113.35 18.5605C113.666 19.3691 113.918 20.1895 114.105 21.0215C114.293 21.8535 114.428 22.6855 114.51 23.5176C114.592 24.3379 114.633 25.1055 114.633 25.8203C114.633 26.207 114.621 26.582 114.598 26.9453C114.586 27.2969 114.562 27.625 114.527 27.9297H110.379C110.438 27.5078 110.473 27.1035 110.484 26.7168C110.508 26.3184 110.52 25.9258 110.52 25.5391C110.52 24.0156 110.338 22.6445 109.975 21.4258C109.611 20.207 109.102 19.1758 108.445 18.332C107.789 17.4766 107.004 16.8262 106.09 16.3809C105.188 15.9238 104.191 15.6953 103.102 15.6953C102.363 15.6953 101.736 15.7129 101.221 15.748C100.705 15.7832 100.254 15.8359 99.8672 15.9062C99.4805 15.9648 99.1348 16.0352 98.8301 16.1172C98.5371 16.1992 98.2383 16.2812 97.9336 16.3633V27.9297H93.6094V5.85156C92.9414 5.99219 92.3203 6.12695 91.7461 6.25586C91.1836 6.37305 90.7617 6.48438 90.4805 6.58984V2.125C91.1484 2.00781 91.8867 1.89648 92.6953 1.79102C93.375 1.69727 94.166 1.60938 95.0684 1.52734C95.9707 1.43359 96.9258 1.36328 97.9336 1.31641V11.4062ZM132.879 1.24609C134.684 1.24609 136.594 1.31055 138.609 1.43945C140.637 1.56836 142.746 1.82031 144.938 2.19531V6.66016C143.953 6.37891 142.957 6.15039 141.949 5.97461C140.941 5.78711 139.928 5.64062 138.908 5.53516C137.9 5.42969 136.893 5.35352 135.885 5.30664C134.877 5.25977 133.875 5.23047 132.879 5.21875C132.398 5.21875 131.865 5.23047 131.279 5.25391C130.705 5.26562 130.09 5.28906 129.434 5.32422C128.789 5.35938 128.109 5.41211 127.395 5.48242C126.68 5.55273 125.953 5.64062 125.215 5.74609V12.1445H140.578V16.4688H125.215V23.5352C126.352 23.6992 127.535 23.8223 128.766 23.9043C129.996 23.9863 131.367 24.0273 132.879 24.0273C134.918 24.0273 136.945 23.9277 138.961 23.7285C140.977 23.5293 142.969 23.1484 144.938 22.5859V27.0508C142.746 27.4258 140.643 27.6777 138.627 27.8066C136.611 27.9355 134.719 28 132.949 28C131.145 28 129.229 27.9355 127.201 27.8066C125.186 27.6777 123.07 27.4258 120.855 27.0508V2.19531C123.07 1.82031 125.186 1.56836 127.201 1.43945C129.217 1.31055 131.109 1.24609 132.879 1.24609ZM159.492 1.14062C160.664 1.14062 161.859 1.19922 163.078 1.31641C164.309 1.42188 165.504 1.61523 166.664 1.89648C167.824 2.16602 168.914 2.54688 169.934 3.03906C170.953 3.51953 171.844 4.13477 172.605 4.88477C173.379 5.62305 173.988 6.51367 174.434 7.55664C174.879 8.58789 175.102 9.80078 175.102 11.1953C175.102 13.1172 174.756 14.7402 174.064 16.0645C173.373 17.377 172.43 18.4375 171.234 19.2461C171.738 20.0195 172.172 20.8281 172.535 21.6719C172.898 22.5156 173.191 23.3359 173.414 24.1328C173.648 24.918 173.818 25.6504 173.924 26.3301C174.029 27.0098 174.082 27.5781 174.082 28.0352H169.582C169.582 27.3203 169.523 26.6465 169.406 26.0137C169.289 25.3691 169.125 24.7598 168.914 24.1855C168.703 23.5996 168.457 23.0488 168.176 22.5332C167.906 22.0176 167.613 21.5195 167.297 21.0391C166.184 21.3555 165.006 21.584 163.764 21.7246C162.521 21.8535 161.227 21.918 159.879 21.918C159.07 21.918 158.25 21.8945 157.418 21.8477C156.586 21.8008 155.766 21.7422 154.957 21.6719V27.9648H150.598V2.16016C150.855 2.07812 151.266 1.97852 151.828 1.86133C152.402 1.74414 153.076 1.63281 153.85 1.52734C154.635 1.42188 155.508 1.33398 156.469 1.26367C157.43 1.18164 158.438 1.14062 159.492 1.14062ZM160.758 5.00781C159.984 5.00781 159.246 5.04297 158.543 5.11328C157.84 5.17188 157.225 5.24219 156.697 5.32422C156.064 5.41797 155.484 5.52344 154.957 5.64062V17.6641C155.332 17.7461 155.748 17.8164 156.205 17.875C156.592 17.9336 157.043 17.9863 157.559 18.0332C158.074 18.0684 158.625 18.0859 159.211 18.0859C159.973 18.0859 160.775 18.0684 161.619 18.0332C162.475 17.9863 163.318 17.8867 164.15 17.7344C164.994 17.582 165.791 17.3594 166.541 17.0664C167.303 16.7617 167.971 16.3633 168.545 15.8711C169.131 15.3672 169.594 14.7461 169.934 14.0078C170.285 13.2695 170.461 12.3789 170.461 11.3359C170.461 10.4688 170.32 9.70703 170.039 9.05078C169.758 8.39453 169.377 7.83203 168.896 7.36328C168.416 6.89453 167.854 6.50781 167.209 6.20312C166.576 5.89844 165.896 5.6582 165.17 5.48242C164.455 5.30664 163.717 5.18359 162.955 5.11328C162.205 5.04297 161.473 5.00781 160.758 5.00781ZM182.941 3.8125C183.375 3.8125 183.797 3.84766 184.207 3.91797C184.629 3.98828 185.004 4.09375 185.332 4.23438C185.66 4.375 185.924 4.5625 186.123 4.79688C186.322 5.01953 186.422 5.28906 186.422 5.60547V7.11719C186.422 7.43359 186.398 7.87891 186.352 8.45312C186.305 9.02734 186.199 9.64258 186.035 10.2988C185.883 10.9434 185.66 11.5879 185.367 12.2324C185.074 12.8652 184.676 13.4102 184.172 13.8672H181.324C181.91 13.1641 182.32 12.4551 182.555 11.7402C182.789 11.0254 182.906 10.3516 182.906 9.71875C182.496 9.71875 182.086 9.68945 181.676 9.63086C181.266 9.57227 180.896 9.48438 180.568 9.36719C180.252 9.23828 179.994 9.07422 179.795 8.875C179.596 8.67578 179.496 8.44141 179.496 8.17188V5.60547C179.496 5.28906 179.596 5.01953 179.795 4.79688C180.006 4.5625 180.275 4.375 180.604 4.23438C180.932 4.09375 181.301 3.98828 181.711 3.91797C182.121 3.84766 182.531 3.8125 182.941 3.8125ZM204.352 1.21094C205.945 1.21094 207.486 1.31055 208.975 1.50977C210.475 1.69727 211.816 2.02539 213 2.49414C214.195 2.95117 215.174 3.57227 215.936 4.35742C216.709 5.14258 217.16 6.12109 217.289 7.29297L212.719 8.55859C212.719 7.85547 212.479 7.28125 211.998 6.83594C211.529 6.37891 210.902 6.02148 210.117 5.76367C209.344 5.49414 208.453 5.30664 207.445 5.20117C206.449 5.0957 205.418 5.04297 204.352 5.04297C203.309 5.04297 202.283 5.08984 201.275 5.18359C200.268 5.27734 199.359 5.45312 198.551 5.71094C197.754 5.96875 197.109 6.32617 196.617 6.7832C196.125 7.24023 195.879 7.83203 195.879 8.55859V12.7422H217.289V21.8477C217.289 22.6328 217.113 23.3359 216.762 23.957C216.422 24.5664 215.947 25.0996 215.338 25.5566C214.74 26.002 214.025 26.3828 213.193 26.6992C212.373 27.0039 211.482 27.25 210.521 27.4375C209.572 27.625 208.57 27.7598 207.516 27.8418C206.461 27.9238 205.406 27.9648 204.352 27.9648C203.273 27.9648 202.213 27.9238 201.17 27.8418C200.127 27.7598 199.137 27.625 198.199 27.4375C197.262 27.25 196.389 27.0039 195.58 26.6992C194.783 26.3828 194.08 26.002 193.471 25.5566C192.861 25.0996 192.369 24.5664 191.994 23.957C191.619 23.3477 191.391 22.6445 191.309 21.8477L195.879 20.582C195.879 21.3086 196.125 21.9004 196.617 22.3574C197.109 22.8145 197.754 23.1719 198.551 23.4297C199.359 23.6875 200.268 23.8633 201.275 23.957C202.283 24.0508 203.309 24.0977 204.352 24.0977C205.418 24.0977 206.449 24.0508 207.445 23.957C208.453 23.8516 209.344 23.6699 210.117 23.4121C210.902 23.1426 211.529 22.7793 211.998 22.3223C212.479 21.8652 212.719 21.2852 212.719 20.582V16.293H191.309V7.29297C191.309 6.50781 191.479 5.81641 191.818 5.21875C192.17 4.60938 192.645 4.08203 193.242 3.63672C193.852 3.17969 194.572 2.79883 195.404 2.49414C196.236 2.17773 197.133 1.92578 198.094 1.73828C199.066 1.55078 200.08 1.41602 201.135 1.33398C202.201 1.25195 203.273 1.21094 204.352 1.21094ZM243.445 1.42188C243.305 2.47656 243.234 3.57812 243.234 4.72656C243.234 6.28516 243.346 7.88477 243.568 9.52539C243.791 11.166 244.131 12.7539 244.588 14.2891C245.045 15.8242 245.619 17.2598 246.311 18.5957C247.014 19.9316 247.84 21.0625 248.789 21.9883C249.762 20.9219 250.594 19.7148 251.285 18.3672C251.988 17.0195 252.562 15.6074 253.008 14.1309C253.453 12.6543 253.781 11.1426 253.992 9.5957C254.203 8.03711 254.309 6.50781 254.309 5.00781C254.309 4.375 254.291 3.75977 254.256 3.16211C254.232 2.56445 254.191 1.97266 254.133 1.38672C255.152 1.43359 256.066 1.50391 256.875 1.59766C257.695 1.69141 258.398 1.78516 258.984 1.87891C259.664 1.99609 260.273 2.11328 260.812 2.23047V6.66016C260.438 6.53125 260.068 6.43164 259.705 6.36133C259.342 6.2793 258.973 6.19141 258.598 6.09766C258.598 8.61719 258.352 10.9551 257.859 13.1113C257.379 15.2559 256.705 17.2598 255.838 19.123C254.971 20.9863 253.934 22.7148 252.727 24.3086C251.531 25.9023 250.219 27.3906 248.789 28.7734C247.348 27.3906 246.029 25.9023 244.834 24.3086C243.65 22.7148 242.637 20.9863 241.793 19.123C240.949 17.2598 240.293 15.2559 239.824 13.1113C239.355 10.9551 239.121 8.61719 239.121 6.09766C238.699 6.19141 238.295 6.2793 237.908 6.36133C237.521 6.43164 237.141 6.53125 236.766 6.66016V2.19531C236.766 2.20703 236.918 2.18359 237.223 2.125C237.539 2.06641 237.984 1.99609 238.559 1.91406C239.145 1.82031 239.848 1.73242 240.668 1.65039C241.488 1.55664 242.414 1.48047 243.445 1.42188ZM277.055 1.24609C278.871 1.24609 280.787 1.31055 282.803 1.43945C284.818 1.56836 286.922 1.82031 289.113 2.19531V6.66016C288.328 6.4375 287.432 6.22656 286.424 6.02734C285.557 5.86328 284.514 5.70508 283.295 5.55273C282.076 5.40039 280.699 5.30078 279.164 5.25391V23.9922C280.699 23.9453 282.076 23.8457 283.295 23.6934C284.514 23.541 285.557 23.3828 286.424 23.2188C287.432 23.0195 288.328 22.8086 289.113 22.5859V27.0508C286.922 27.4258 284.818 27.6777 282.803 27.8066C280.787 27.9355 278.871 28 277.055 28C275.285 28 273.393 27.9355 271.377 27.8066C269.361 27.6777 267.246 27.4258 265.031 27.0508V22.5859C265.816 22.8086 266.713 23.0195 267.721 23.2188C268.588 23.3828 269.631 23.541 270.85 23.6934C272.068 23.8457 273.445 23.9453 274.98 23.9922V5.25391C273.445 5.30078 272.068 5.40039 270.85 5.55273C269.631 5.70508 268.588 5.86328 267.721 6.02734C266.713 6.22656 265.816 6.4375 265.031 6.66016V2.19531C267.246 1.82031 269.361 1.56836 271.377 1.43945C273.393 1.31055 275.285 1.24609 277.055 1.24609ZM306.48 1.21094C308.074 1.21094 309.615 1.31055 311.104 1.50977C312.604 1.69727 313.945 2.02539 315.129 2.49414C316.324 2.95117 317.303 3.57227 318.064 4.35742C318.838 5.14258 319.289 6.12109 319.418 7.29297L314.848 8.55859C314.848 7.85547 314.607 7.28125 314.127 6.83594C313.658 6.37891 313.031 6.02148 312.246 5.76367C311.473 5.49414 310.582 5.30664 309.574 5.20117C308.578 5.0957 307.547 5.04297 306.48 5.04297C305.438 5.04297 304.412 5.08984 303.404 5.18359C302.396 5.27734 301.488 5.45312 300.68 5.71094C299.883 5.96875 299.238 6.32617 298.746 6.7832C298.254 7.24023 298.008 7.83203 298.008 8.55859V12.7422H319.418V21.8477C319.418 22.6328 319.242 23.3359 318.891 23.957C318.551 24.5664 318.076 25.0996 317.467 25.5566C316.869 26.002 316.154 26.3828 315.322 26.6992C314.502 27.0039 313.611 27.25 312.65 27.4375C311.701 27.625 310.699 27.7598 309.645 27.8418C308.59 27.9238 307.535 27.9648 306.48 27.9648C305.402 27.9648 304.342 27.9238 303.299 27.8418C302.256 27.7598 301.266 27.625 300.328 27.4375C299.391 27.25 298.518 27.0039 297.709 26.6992C296.912 26.3828 296.209 26.002 295.6 25.5566C294.99 25.0996 294.498 24.5664 294.123 23.957C293.748 23.3477 293.52 22.6445 293.438 21.8477L298.008 20.582C298.008 21.3086 298.254 21.9004 298.746 22.3574C299.238 22.8145 299.883 23.1719 300.68 23.4297C301.488 23.6875 302.396 23.8633 303.404 23.957C304.412 24.0508 305.438 24.0977 306.48 24.0977C307.547 24.0977 308.578 24.0508 309.574 23.957C310.582 23.8516 311.473 23.6699 312.246 23.4121C313.031 23.1426 313.658 22.7793 314.127 22.3223C314.607 21.8652 314.848 21.2852 314.848 20.582V16.293H293.438V7.29297C293.438 6.50781 293.607 5.81641 293.947 5.21875C294.299 4.60938 294.773 4.08203 295.371 3.63672C295.98 3.17969 296.701 2.79883 297.533 2.49414C298.365 2.17773 299.262 1.92578 300.223 1.73828C301.195 1.55078 302.209 1.41602 303.264 1.33398C304.33 1.25195 305.402 1.21094 306.48 1.21094ZM330.387 20.8281C330.387 21.3438 330.58 21.8242 330.967 22.2695C331.365 22.7148 331.922 23.1074 332.637 23.4473C333.363 23.7754 334.23 24.0391 335.238 24.2383C336.258 24.4258 337.395 24.5195 338.648 24.5195C339.926 24.5195 341.074 24.4199 342.094 24.2207C343.113 24.0098 343.975 23.7344 344.678 23.3945C345.393 23.0547 345.938 22.6621 346.312 22.2168C346.688 21.7715 346.875 21.3086 346.875 20.8281V1.63281C347.883 1.67969 348.832 1.75 349.723 1.84375C350.613 1.92578 351.404 2.01367 352.096 2.10742C352.893 2.21289 353.637 2.32422 354.328 2.44141V6.94141C354.047 6.84766 353.643 6.73633 353.115 6.60742C352.588 6.4668 352.008 6.34375 351.375 6.23828V22.1289C351.375 23.0547 351.035 23.8984 350.355 24.6602C349.688 25.4219 348.773 26.0781 347.613 26.6289C346.465 27.168 345.117 27.5898 343.57 27.8945C342.023 28.1992 340.383 28.3516 338.648 28.3516C336.902 28.3516 335.256 28.1992 333.709 27.8945C332.162 27.5898 330.809 27.168 329.648 26.6289C328.488 26.0781 327.568 25.4219 326.889 24.6602C326.221 23.8984 325.887 23.0547 325.887 22.1289V6.23828C325.254 6.36719 324.668 6.49609 324.129 6.625C323.602 6.74219 323.203 6.84766 322.934 6.94141V2.44141C323.602 2.32422 324.34 2.21289 325.148 2.10742C325.828 2.01367 326.619 1.92578 327.521 1.84375C328.424 1.75 329.379 1.67969 330.387 1.63281V20.8281ZM371.238 0.542969C371.965 0.542969 372.703 0.619141 373.453 0.771484C374.203 0.912109 374.871 1.10547 375.457 1.35156C376.488 3.15625 377.426 4.99609 378.27 6.87109C379.125 8.73438 379.887 10.6562 380.555 12.6367C381.012 12.6953 381.475 12.7598 381.943 12.8301C382.412 12.8887 382.887 12.9531 383.367 13.0234V17.5234L381.855 17.1016C382.277 18.8477 382.635 20.6289 382.928 22.4453C383.221 24.2617 383.438 26.1133 383.578 28H379.395C379.219 25.9844 378.926 23.9922 378.516 22.0234C378.105 20.0547 377.637 18.168 377.109 16.3633C375.973 16.2695 374.889 16.1992 373.857 16.1523C372.838 16.1055 371.965 16.082 371.238 16.082C370.266 16.082 369.299 16.0996 368.338 16.1348C367.377 16.1699 366.41 16.2344 365.438 16.3281C364.91 18.1328 364.436 20.0195 364.014 21.9883C363.604 23.957 363.316 25.9609 363.152 28H358.969C359.098 26.1133 359.303 24.2676 359.584 22.4629C359.877 20.6582 360.234 18.8828 360.656 17.1367L359.285 17.5234V13.0234L361.992 12.6367C362.648 10.6562 363.398 8.73438 364.242 6.87109C365.098 4.99609 366.047 3.15625 367.09 1.35156C367.676 1.10547 368.338 0.912109 369.076 0.771484C369.814 0.619141 370.535 0.542969 371.238 0.542969ZM371.238 12.1094C371.941 12.1094 372.668 12.1211 373.418 12.1445C374.168 12.1562 374.941 12.1914 375.738 12.25C375.141 10.6211 374.549 9.20898 373.963 8.01367C373.389 6.80664 372.891 5.875 372.469 5.21875C372.258 5.125 372.059 5.06055 371.871 5.02539C371.684 4.99023 371.473 4.97266 371.238 4.97266C370.863 4.97266 370.477 5.05469 370.078 5.21875C369.656 5.875 369.152 6.80664 368.566 8.01367C367.98 9.20898 367.395 10.6211 366.809 12.25C367.582 12.1914 368.338 12.1562 369.076 12.1445C369.826 12.1211 370.547 12.1094 371.238 12.1094ZM396.41 5.32422C395.719 5.38281 395.086 5.44727 394.512 5.51758C393.938 5.57617 393.387 5.64062 392.859 5.71094V23.5C393.633 23.6055 394.488 23.6992 395.426 23.7812C396.363 23.8633 397.383 23.9219 398.484 23.957C398.836 23.9805 399.182 23.9922 399.521 23.9922C399.861 23.9922 400.207 23.9922 400.559 23.9922C400.91 23.9922 401.262 23.9922 401.613 23.9922C401.965 23.9922 402.316 23.9805 402.668 23.957C403.98 23.9219 405.146 23.8574 406.166 23.7637C407.197 23.6582 408.129 23.5234 408.961 23.3594C409.172 22.1992 409.348 20.793 409.488 19.1406H413.496C413.426 20.3945 413.326 21.6777 413.197 22.9902C413.068 24.291 412.887 25.6328 412.652 27.0156C410.426 27.3906 408.305 27.6426 406.289 27.7715C404.285 27.9004 402.398 27.9648 400.629 27.9648C398.812 27.9648 396.891 27.9004 394.863 27.7715C392.836 27.6426 390.727 27.3906 388.535 27.0156V2.16016C389.93 1.91406 391.277 1.73242 392.578 1.61523C393.891 1.48633 395.168 1.38672 396.41 1.31641V5.32422ZM428.227 1.24609C430.043 1.24609 431.959 1.31055 433.975 1.43945C435.99 1.56836 438.094 1.82031 440.285 2.19531V6.66016C439.5 6.4375 438.604 6.22656 437.596 6.02734C436.729 5.86328 435.686 5.70508 434.467 5.55273C433.248 5.40039 431.871 5.30078 430.336 5.25391V23.9922C431.871 23.9453 433.248 23.8457 434.467 23.6934C435.686 23.541 436.729 23.3828 437.596 23.2188C438.604 23.0195 439.5 22.8086 440.285 22.5859V27.0508C438.094 27.4258 435.99 27.6777 433.975 27.8066C431.959 27.9355 430.043 28 428.227 28C426.457 28 424.564 27.9355 422.549 27.8066C420.533 27.6777 418.418 27.4258 416.203 27.0508V22.5859C416.988 22.8086 417.885 23.0195 418.893 23.2188C419.76 23.3828 420.803 23.541 422.021 23.6934C423.24 23.8457 424.617 23.9453 426.152 23.9922V5.25391C424.617 5.30078 423.24 5.40039 422.021 5.55273C420.803 5.70508 419.76 5.86328 418.893 6.02734C417.885 6.22656 416.988 6.4375 416.203 6.66016V2.19531C418.418 1.82031 420.533 1.56836 422.549 1.43945C424.564 1.31055 426.457 1.24609 428.227 1.24609ZM457.195 1.24609C459 1.24609 460.91 1.31055 462.926 1.43945C464.953 1.56836 467.074 1.82031 469.289 2.19531V6.66016C468.715 7.53906 468.035 8.46484 467.25 9.4375C466.465 10.3984 465.609 11.3828 464.684 12.3906C463.758 13.3867 462.773 14.3945 461.73 15.4141C460.688 16.4336 459.609 17.4355 458.496 18.4199C457.383 19.3926 456.252 20.3359 455.104 21.25C453.967 22.1523 452.836 22.9961 451.711 23.7812C452.73 23.8867 453.879 23.957 455.156 23.9922C455.496 24.0156 455.836 24.0273 456.176 24.0273C456.527 24.0273 456.879 24.0273 457.23 24.0273C457.582 24.0273 457.928 24.0273 458.268 24.0273C458.607 24.0273 458.965 24.0156 459.34 23.9922C460.629 23.957 461.789 23.8867 462.82 23.7812C463.863 23.6641 464.789 23.5352 465.598 23.3945C465.703 22.8086 465.797 22.1699 465.879 21.4785C465.961 20.7754 466.031 20.0078 466.09 19.1758H470.098C470.039 20.4297 469.945 21.7129 469.816 23.0254C469.699 24.3262 469.523 25.668 469.289 27.0508C467.074 27.4258 464.959 27.6777 462.943 27.8066C460.928 27.9355 459.047 28 457.301 28C455.484 28 453.562 27.9355 451.535 27.8066C449.508 27.6777 447.398 27.4258 445.207 27.0508V22.5859C446.906 21.6133 448.617 20.5 450.34 19.2461C452.074 17.9805 453.768 16.6211 455.42 15.168C457.072 13.7148 458.666 12.1855 460.201 10.5801C461.748 8.96289 463.184 7.31641 464.508 5.64062C464.145 5.59375 463.752 5.54688 463.33 5.5C462.92 5.45312 462.434 5.41211 461.871 5.37695C461.309 5.33008 460.652 5.29492 459.902 5.27148C459.164 5.23633 458.297 5.21875 457.301 5.21875C456.141 5.21875 455.139 5.23633 454.295 5.27148C453.451 5.30664 452.707 5.35352 452.062 5.41211C451.418 5.4707 450.838 5.54102 450.322 5.62305C449.818 5.69336 449.32 5.76953 448.828 5.85156C448.734 6.4375 448.646 7.08789 448.564 7.80273C448.494 8.50586 448.43 9.26172 448.371 10.0703H444.363C444.434 8.82812 444.527 7.55664 444.645 6.25586C444.773 4.94336 444.961 3.58984 445.207 2.19531C447.398 1.82031 449.502 1.56836 451.518 1.43945C453.533 1.31055 455.426 1.24609 457.195 1.24609ZM486.867 0.542969C487.594 0.542969 488.332 0.619141 489.082 0.771484C489.832 0.912109 490.5 1.10547 491.086 1.35156C492.117 3.15625 493.055 4.99609 493.898 6.87109C494.754 8.73438 495.516 10.6562 496.184 12.6367C496.641 12.6953 497.104 12.7598 497.572 12.8301C498.041 12.8887 498.516 12.9531 498.996 13.0234V17.5234L497.484 17.1016C497.906 18.8477 498.264 20.6289 498.557 22.4453C498.85 24.2617 499.066 26.1133 499.207 28H495.023C494.848 25.9844 494.555 23.9922 494.145 22.0234C493.734 20.0547 493.266 18.168 492.738 16.3633C491.602 16.2695 490.518 16.1992 489.486 16.1523C488.467 16.1055 487.594 16.082 486.867 16.082C485.895 16.082 484.928 16.0996 483.967 16.1348C483.006 16.1699 482.039 16.2344 481.066 16.3281C480.539 18.1328 480.064 20.0195 479.643 21.9883C479.232 23.957 478.945 25.9609 478.781 28H474.598C474.727 26.1133 474.932 24.2676 475.213 22.4629C475.506 20.6582 475.863 18.8828 476.285 17.1367L474.914 17.5234V13.0234L477.621 12.6367C478.277 10.6562 479.027 8.73438 479.871 6.87109C480.727 4.99609 481.676 3.15625 482.719 1.35156C483.305 1.10547 483.967 0.912109 484.705 0.771484C485.443 0.619141 486.164 0.542969 486.867 0.542969ZM486.867 12.1094C487.57 12.1094 488.297 12.1211 489.047 12.1445C489.797 12.1562 490.57 12.1914 491.367 12.25C490.77 10.6211 490.178 9.20898 489.592 8.01367C489.018 6.80664 488.52 5.875 488.098 5.21875C487.887 5.125 487.688 5.06055 487.5 5.02539C487.312 4.99023 487.102 4.97266 486.867 4.97266C486.492 4.97266 486.105 5.05469 485.707 5.21875C485.285 5.875 484.781 6.80664 484.195 8.01367C483.609 9.20898 483.023 10.6211 482.438 12.25C483.211 12.1914 483.967 12.1562 484.705 12.1445C485.455 12.1211 486.176 12.1094 486.867 12.1094ZM514.184 1.28125C516 1.28125 517.91 1.3457 519.914 1.47461C521.918 1.60352 524.027 1.85547 526.242 2.23047V6.69531C525.457 6.47266 524.561 6.26172 523.553 6.0625C522.686 5.89844 521.643 5.74023 520.424 5.58789C519.205 5.43555 517.828 5.33594 516.293 5.28906V28.0352H512.109V5.28906C510.574 5.33594 509.197 5.43555 507.979 5.58789C506.76 5.74023 505.717 5.89844 504.85 6.0625C503.842 6.26172 502.945 6.47266 502.16 6.69531V2.23047C504.352 1.85547 506.461 1.60352 508.488 1.47461C510.516 1.3457 512.414 1.28125 514.184 1.28125ZM541.535 1.24609C543.352 1.24609 545.268 1.31055 547.283 1.43945C549.299 1.56836 551.402 1.82031 553.594 2.19531V6.66016C552.809 6.4375 551.912 6.22656 550.904 6.02734C550.037 5.86328 548.994 5.70508 547.775 5.55273C546.557 5.40039 545.18 5.30078 543.645 5.25391V23.9922C545.18 23.9453 546.557 23.8457 547.775 23.6934C548.994 23.541 550.037 23.3828 550.904 23.2188C551.912 23.0195 552.809 22.8086 553.594 22.5859V27.0508C551.402 27.4258 549.299 27.6777 547.283 27.8066C545.268 27.9355 543.352 28 541.535 28C539.766 28 537.873 27.9355 535.857 27.8066C533.842 27.6777 531.727 27.4258 529.512 27.0508V22.5859C530.297 22.8086 531.193 23.0195 532.201 23.2188C533.068 23.3828 534.111 23.541 535.33 23.6934C536.549 23.8457 537.926 23.9453 539.461 23.9922V5.25391C537.926 5.30078 536.549 5.40039 535.33 5.55273C534.111 5.70508 533.068 5.86328 532.201 6.02734C531.193 6.22656 530.297 6.4375 529.512 6.66016V2.19531C531.727 1.82031 533.842 1.56836 535.857 1.43945C537.873 1.31055 539.766 1.24609 541.535 1.24609ZM571.664 0.789062C572.836 0.789062 573.973 0.859375 575.074 1C576.176 1.14062 577.207 1.3457 578.168 1.61523C579.129 1.87305 580.008 2.18945 580.805 2.56445C581.602 2.92773 582.281 3.34375 582.844 3.8125C583.406 4.28125 583.846 4.79688 584.162 5.35938C584.479 5.91016 584.637 6.49609 584.637 7.11719V22.1992C584.637 22.8203 584.479 23.4121 584.162 23.9746C583.846 24.5254 583.406 25.0352 582.844 25.5039C582.281 25.9727 581.602 26.3945 580.805 26.7695C580.008 27.1328 579.129 27.4492 578.168 27.7188C577.207 27.9766 576.176 28.1758 575.074 28.3164C573.973 28.457 572.836 28.5273 571.664 28.5273C570.492 28.5273 569.355 28.457 568.254 28.3164C567.164 28.1758 566.139 27.9766 565.178 27.7188C564.229 27.4492 563.355 27.1328 562.559 26.7695C561.762 26.3945 561.076 25.9727 560.502 25.5039C559.939 25.0352 559.5 24.5254 559.184 23.9746C558.879 23.4121 558.727 22.8203 558.727 22.1992V7.11719C558.727 6.49609 558.879 5.91016 559.184 5.35938C559.5 4.79688 559.939 4.28125 560.502 3.8125C561.076 3.34375 561.762 2.92773 562.559 2.56445C563.355 2.18945 564.229 1.87305 565.178 1.61523C566.139 1.3457 567.164 1.14062 568.254 1C569.355 0.859375 570.492 0.789062 571.664 0.789062ZM580.031 8.45312C580.031 7.94922 579.838 7.47461 579.451 7.0293C579.064 6.57227 578.508 6.17383 577.781 5.83398C577.066 5.48242 576.193 5.20703 575.162 5.00781C574.131 4.79688 572.965 4.69141 571.664 4.69141C570.41 4.69141 569.273 4.79102 568.254 4.99023C567.234 5.17773 566.355 5.44141 565.617 5.78125C564.891 6.12109 564.328 6.51953 563.93 6.97656C563.531 7.43359 563.332 7.92578 563.332 8.45312V20.8633C563.332 21.3789 563.531 21.8652 563.93 22.3223C564.328 22.7793 564.891 23.1777 565.617 23.5176C566.355 23.8574 567.234 24.127 568.254 24.3262C569.273 24.5254 570.41 24.625 571.664 24.625C572.965 24.625 574.131 24.5254 575.162 24.3262C576.193 24.1152 577.066 23.834 577.781 23.4824C578.508 23.1309 579.064 22.7324 579.451 22.2871C579.838 21.8301 580.031 21.3555 580.031 20.8633V8.45312ZM608.859 21.0742V1.49219C609.867 1.52734 610.811 1.5918 611.689 1.68555C612.58 1.76758 613.365 1.85547 614.045 1.94922C614.83 2.06641 615.562 2.18359 616.242 2.30078V6.76562C615.305 6.48438 614.227 6.23828 613.008 6.02734V23.7461C613.641 23.6523 614.221 23.541 614.748 23.4121C615.287 23.2832 615.785 23.1484 616.242 23.0078V27.1562C615.398 27.2969 614.631 27.4141 613.939 27.5078C613.248 27.6016 612.604 27.6777 612.006 27.7363C611.42 27.7949 610.869 27.8418 610.354 27.877C609.838 27.9121 609.34 27.9414 608.859 27.9648L597.082 8.41797V27.9648C596.602 27.9414 596.104 27.9121 595.588 27.877C595.072 27.8418 594.521 27.7949 593.936 27.7363C593.35 27.6777 592.711 27.6016 592.02 27.5078C591.328 27.4141 590.566 27.2969 589.734 27.1562V22.6914C590.602 22.9727 591.68 23.2188 592.969 23.4297V5.67578C592.348 5.78125 591.768 5.89844 591.229 6.02734C590.689 6.15625 590.191 6.28516 589.734 6.41406V2.30078C590.391 2.18359 591.111 2.06641 591.896 1.94922C592.564 1.85547 593.344 1.76758 594.234 1.68555C595.125 1.5918 596.074 1.52734 597.082 1.49219L608.859 21.0742Z" fill="#FFED50"/>
<path d="M11.3086 0.964844C13.1133 0.964844 14.7188 1.12305 16.125 1.43945C17.543 1.75586 18.7383 2.19531 19.7109 2.75781C20.6953 3.32031 21.4453 4 21.9609 4.79688C22.4766 5.58203 22.7344 6.44922 22.7344 7.39844V9.96484C22.7344 10.9727 22.5352 11.7871 22.1367 12.4082C21.75 13.0293 21.2109 13.5273 20.5195 13.9023C21.0938 14.0664 21.6211 14.2773 22.1016 14.5352C22.5938 14.793 23.0098 15.1094 23.3496 15.4844C23.7012 15.8477 23.9707 16.2754 24.1582 16.7676C24.3574 17.248 24.457 17.8047 24.457 18.4375V21.8828C24.457 22.832 24.1113 23.7051 23.4199 24.502C22.7285 25.2871 21.7852 25.9668 20.5898 26.541C19.3945 27.1152 18 27.5605 16.4062 27.877C14.8125 28.1934 13.1133 28.3516 11.3086 28.3516C10.3008 28.3516 9.26953 28.3105 8.21484 28.2285C7.16016 28.1582 6.13477 28.0586 5.13867 27.9297C4.1543 27.8008 3.22852 27.6543 2.36133 27.4902C1.49414 27.3262 0.75 27.1562 0.128906 26.9805V2.30078C0.75 2.125 1.49414 1.96094 2.36133 1.80859C3.22852 1.64453 4.1543 1.50391 5.13867 1.38672C6.13477 1.25781 7.16016 1.1582 8.21484 1.08789C9.26953 1.00586 10.3008 0.964844 11.3086 0.964844ZM11.168 16.3281C10.5352 16.3281 9.90234 16.334 9.26953 16.3457C8.63672 16.3457 8.02148 16.3633 7.42383 16.3984C6.83789 16.4219 6.27539 16.4629 5.73633 16.5215C5.19727 16.5801 4.71094 16.6562 4.27734 16.75V23.4297C4.51172 23.5117 4.81055 23.6055 5.17383 23.7109C5.54883 23.8164 6.01758 23.916 6.58008 24.0098C7.14258 24.1035 7.81641 24.1855 8.60156 24.2559C9.38672 24.3145 10.3125 24.3438 11.3789 24.3438C12.6914 24.3438 13.8691 24.2383 14.9121 24.0273C15.9668 23.8164 16.8516 23.5352 17.5664 23.1836C18.293 22.832 18.8496 22.4277 19.2363 21.9707C19.623 21.502 19.8164 21.0156 19.8164 20.5117V19C19.8164 18.4492 19.5703 17.998 19.0781 17.6465C18.5859 17.2949 17.9355 17.0254 17.127 16.8379C16.3184 16.6387 15.3926 16.5039 14.3496 16.4336C13.3184 16.3633 12.2578 16.3281 11.168 16.3281ZM4.27734 11.9688C5.00391 12.1094 5.83008 12.2031 6.75586 12.25C7.69336 12.2969 8.75391 12.3203 9.9375 12.3203C10.957 12.3203 11.9707 12.2852 12.9785 12.2148C13.9863 12.1328 14.8945 12.0039 15.7031 11.8281C16.5117 11.6406 17.168 11.3945 17.6719 11.0898C18.1758 10.7734 18.4336 10.375 18.4453 9.89453V8.76953C18.4453 8.26562 18.3223 7.78516 18.0762 7.32812C17.8418 6.85938 17.4434 6.44922 16.8809 6.09766C16.3301 5.74609 15.6035 5.46484 14.7012 5.25391C13.7988 5.04297 12.6914 4.9375 11.3789 4.9375C10.3125 4.9375 9.38672 4.97266 8.60156 5.04297C7.81641 5.10156 7.14258 5.17773 6.58008 5.27148C6.01758 5.36523 5.54883 5.46484 5.17383 5.57031C4.81055 5.67578 4.51172 5.76953 4.27734 5.85156V11.9688ZM41.332 0.542969C42.0586 0.542969 42.7969 0.619141 43.5469 0.771484C44.2969 0.912109 44.9648 1.10547 45.5508 1.35156C46.582 3.15625 47.5195 4.99609 48.3633 6.87109C49.2188 8.73438 49.9805 10.6562 50.6484 12.6367C51.1055 12.6953 51.5684 12.7598 52.0371 12.8301C52.5059 12.8887 52.9805 12.9531 53.4609 13.0234V17.5234L51.9492 17.1016C52.3711 18.8477 52.7285 20.6289 53.0215 22.4453C53.3145 24.2617 53.5312 26.1133 53.6719 28H49.4883C49.3125 25.9844 49.0195 23.9922 48.6094 22.0234C48.1992 20.0547 47.7305 18.168 47.2031 16.3633C46.0664 16.2695 44.9824 16.1992 43.9512 16.1523C42.9316 16.1055 42.0586 16.082 41.332 16.082C40.3594 16.082 39.3926 16.0996 38.4316 16.1348C37.4707 16.1699 36.5039 16.2344 35.5312 16.3281C35.0039 18.1328 34.5293 20.0195 34.1074 21.9883C33.6973 23.957 33.4102 25.9609 33.2461 28H29.0625C29.1914 26.1133 29.3965 24.2676 29.6777 22.4629C29.9707 20.6582 30.3281 18.8828 30.75 17.1367L29.3789 17.5234V13.0234L32.0859 12.6367C32.7422 10.6562 33.4922 8.73438 34.3359 6.87109C35.1914 4.99609 36.1406 3.15625 37.1836 1.35156C37.7695 1.10547 38.4316 0.912109 39.1699 0.771484C39.9082 0.619141 40.6289 0.542969 41.332 0.542969ZM41.332 12.1094C42.0352 12.1094 42.7617 12.1211 43.5117 12.1445C44.2617 12.1562 45.0352 12.1914 45.832 12.25C45.2344 10.6211 44.6426 9.20898 44.0566 8.01367C43.4824 6.80664 42.9844 5.875 42.5625 5.21875C42.3516 5.125 42.1523 5.06055 41.9648 5.02539C41.7773 4.99023 41.5664 4.97266 41.332 4.97266C40.957 4.97266 40.5703 5.05469 40.1719 5.21875C39.75 5.875 39.2461 6.80664 38.6602 8.01367C38.0742 9.20898 37.4883 10.6211 36.9023 12.25C37.6758 12.1914 38.4316 12.1562 39.1699 12.1445C39.9199 12.1211 40.6406 12.1094 41.332 12.1094ZM78.0703 21.0742V1.49219C79.0781 1.52734 80.0215 1.5918 80.9004 1.68555C81.791 1.76758 82.5762 1.85547 83.2559 1.94922C84.041 2.06641 84.7734 2.18359 85.4531 2.30078V6.76562C84.5156 6.48438 83.4375 6.23828 82.2188 6.02734V23.7461C82.8516 23.6523 83.4316 23.541 83.959 23.4121C84.498 23.2832 84.9961 23.1484 85.4531 23.0078V27.1562C84.6094 27.2969 83.8418 27.4141 83.1504 27.5078C82.459 27.6016 81.8145 27.6777 81.2168 27.7363C80.6309 27.7949 80.0801 27.8418 79.5645 27.877C79.0488 27.9121 78.5508 27.9414 78.0703 27.9648L66.293 8.41797V27.9648C65.8125 27.9414 65.3145 27.9121 64.7988 27.877C64.2832 27.8418 63.7324 27.7949 63.1465 27.7363C62.5605 27.6777 61.9219 27.6016 61.2305 27.5078C60.5391 27.4141 59.7773 27.2969 58.9453 27.1562V22.6914C59.8125 22.9727 60.8906 23.2188 62.1797 23.4297V5.67578C61.5586 5.78125 60.9785 5.89844 60.4395 6.02734C59.9004 6.15625 59.4023 6.28516 58.9453 6.41406V2.30078C59.6016 2.18359 60.3223 2.06641 61.1074 1.94922C61.7754 1.85547 62.5547 1.76758 63.4453 1.68555C64.3359 1.5918 65.2852 1.52734 66.293 1.49219L78.0703 21.0742ZM97.9336 11.4062C98.3906 11.5 98.8535 11.5645 99.3223 11.5996C99.791 11.6348 100.266 11.6523 100.746 11.6523C102.293 11.6523 103.559 11.3887 104.543 10.8613C105.527 10.334 106.301 9.60742 106.863 8.68164C107.426 7.75586 107.818 6.66602 108.041 5.41211C108.264 4.14648 108.387 2.78125 108.41 1.31641C109.418 1.36328 110.367 1.43359 111.258 1.52734C112.148 1.60938 112.939 1.69727 113.631 1.79102C114.428 1.89648 115.172 2.00781 115.863 2.125V6.58984C115.688 6.53125 115.459 6.4668 115.178 6.39648C114.908 6.32617 114.604 6.25586 114.264 6.18555C113.936 6.10352 113.578 6.02734 113.191 5.95703C112.816 5.875 112.43 5.79297 112.031 5.71094C111.949 6.46094 111.826 7.20508 111.662 7.94336C111.51 8.66992 111.293 9.36719 111.012 10.0352C110.73 10.7031 110.373 11.3184 109.939 11.8809C109.518 12.4316 108.996 12.9062 108.375 13.3047C109.195 13.5742 109.922 13.9727 110.555 14.5C111.188 15.0273 111.732 15.6367 112.189 16.3281C112.658 17.0078 113.045 17.752 113.35 18.5605C113.666 19.3691 113.918 20.1895 114.105 21.0215C114.293 21.8535 114.428 22.6855 114.51 23.5176C114.592 24.3379 114.633 25.1055 114.633 25.8203C114.633 26.207 114.621 26.582 114.598 26.9453C114.586 27.2969 114.562 27.625 114.527 27.9297H110.379C110.438 27.5078 110.473 27.1035 110.484 26.7168C110.508 26.3184 110.52 25.9258 110.52 25.5391C110.52 24.0156 110.338 22.6445 109.975 21.4258C109.611 20.207 109.102 19.1758 108.445 18.332C107.789 17.4766 107.004 16.8262 106.09 16.3809C105.188 15.9238 104.191 15.6953 103.102 15.6953C102.363 15.6953 101.736 15.7129 101.221 15.748C100.705 15.7832 100.254 15.8359 99.8672 15.9062C99.4805 15.9648 99.1348 16.0352 98.8301 16.1172C98.5371 16.1992 98.2383 16.2812 97.9336 16.3633V27.9297H93.6094V5.85156C92.9414 5.99219 92.3203 6.12695 91.7461 6.25586C91.1836 6.37305 90.7617 6.48438 90.4805 6.58984V2.125C91.1484 2.00781 91.8867 1.89648 92.6953 1.79102C93.375 1.69727 94.166 1.60938 95.0684 1.52734C95.9707 1.43359 96.9258 1.36328 97.9336 1.31641V11.4062ZM132.879 1.24609C134.684 1.24609 136.594 1.31055 138.609 1.43945C140.637 1.56836 142.746 1.82031 144.938 2.19531V6.66016C143.953 6.37891 142.957 6.15039 141.949 5.97461C140.941 5.78711 139.928 5.64062 138.908 5.53516C137.9 5.42969 136.893 5.35352 135.885 5.30664C134.877 5.25977 133.875 5.23047 132.879 5.21875C132.398 5.21875 131.865 5.23047 131.279 5.25391C130.705 5.26562 130.09 5.28906 129.434 5.32422C128.789 5.35938 128.109 5.41211 127.395 5.48242C126.68 5.55273 125.953 5.64062 125.215 5.74609V12.1445H140.578V16.4688H125.215V23.5352C126.352 23.6992 127.535 23.8223 128.766 23.9043C129.996 23.9863 131.367 24.0273 132.879 24.0273C134.918 24.0273 136.945 23.9277 138.961 23.7285C140.977 23.5293 142.969 23.1484 144.938 22.5859V27.0508C142.746 27.4258 140.643 27.6777 138.627 27.8066C136.611 27.9355 134.719 28 132.949 28C131.145 28 129.229 27.9355 127.201 27.8066C125.186 27.6777 123.07 27.4258 120.855 27.0508V2.19531C123.07 1.82031 125.186 1.56836 127.201 1.43945C129.217 1.31055 131.109 1.24609 132.879 1.24609ZM159.492 1.14062C160.664 1.14062 161.859 1.19922 163.078 1.31641C164.309 1.42188 165.504 1.61523 166.664 1.89648C167.824 2.16602 168.914 2.54688 169.934 3.03906C170.953 3.51953 171.844 4.13477 172.605 4.88477C173.379 5.62305 173.988 6.51367 174.434 7.55664C174.879 8.58789 175.102 9.80078 175.102 11.1953C175.102 13.1172 174.756 14.7402 174.064 16.0645C173.373 17.377 172.43 18.4375 171.234 19.2461C171.738 20.0195 172.172 20.8281 172.535 21.6719C172.898 22.5156 173.191 23.3359 173.414 24.1328C173.648 24.918 173.818 25.6504 173.924 26.3301C174.029 27.0098 174.082 27.5781 174.082 28.0352H169.582C169.582 27.3203 169.523 26.6465 169.406 26.0137C169.289 25.3691 169.125 24.7598 168.914 24.1855C168.703 23.5996 168.457 23.0488 168.176 22.5332C167.906 22.0176 167.613 21.5195 167.297 21.0391C166.184 21.3555 165.006 21.584 163.764 21.7246C162.521 21.8535 161.227 21.918 159.879 21.918C159.07 21.918 158.25 21.8945 157.418 21.8477C156.586 21.8008 155.766 21.7422 154.957 21.6719V27.9648H150.598V2.16016C150.855 2.07812 151.266 1.97852 151.828 1.86133C152.402 1.74414 153.076 1.63281 153.85 1.52734C154.635 1.42188 155.508 1.33398 156.469 1.26367C157.43 1.18164 158.438 1.14062 159.492 1.14062ZM160.758 5.00781C159.984 5.00781 159.246 5.04297 158.543 5.11328C157.84 5.17188 157.225 5.24219 156.697 5.32422C156.064 5.41797 155.484 5.52344 154.957 5.64062V17.6641C155.332 17.7461 155.748 17.8164 156.205 17.875C156.592 17.9336 157.043 17.9863 157.559 18.0332C158.074 18.0684 158.625 18.0859 159.211 18.0859C159.973 18.0859 160.775 18.0684 161.619 18.0332C162.475 17.9863 163.318 17.8867 164.15 17.7344C164.994 17.582 165.791 17.3594 166.541 17.0664C167.303 16.7617 167.971 16.3633 168.545 15.8711C169.131 15.3672 169.594 14.7461 169.934 14.0078C170.285 13.2695 170.461 12.3789 170.461 11.3359C170.461 10.4688 170.32 9.70703 170.039 9.05078C169.758 8.39453 169.377 7.83203 168.896 7.36328C168.416 6.89453 167.854 6.50781 167.209 6.20312C166.576 5.89844 165.896 5.6582 165.17 5.48242C164.455 5.30664 163.717 5.18359 162.955 5.11328C162.205 5.04297 161.473 5.00781 160.758 5.00781ZM182.941 3.8125C183.375 3.8125 183.797 3.84766 184.207 3.91797C184.629 3.98828 185.004 4.09375 185.332 4.23438C185.66 4.375 185.924 4.5625 186.123 4.79688C186.322 5.01953 186.422 5.28906 186.422 5.60547V7.11719C186.422 7.43359 186.398 7.87891 186.352 8.45312C186.305 9.02734 186.199 9.64258 186.035 10.2988C185.883 10.9434 185.66 11.5879 185.367 12.2324C185.074 12.8652 184.676 13.4102 184.172 13.8672H181.324C181.91 13.1641 182.32 12.4551 182.555 11.7402C182.789 11.0254 182.906 10.3516 182.906 9.71875C182.496 9.71875 182.086 9.68945 181.676 9.63086C181.266 9.57227 180.896 9.48438 180.568 9.36719C180.252 9.23828 179.994 9.07422 179.795 8.875C179.596 8.67578 179.496 8.44141 179.496 8.17188V5.60547C179.496 5.28906 179.596 5.01953 179.795 4.79688C180.006 4.5625 180.275 4.375 180.604 4.23438C180.932 4.09375 181.301 3.98828 181.711 3.91797C182.121 3.84766 182.531 3.8125 182.941 3.8125ZM204.352 1.21094C205.945 1.21094 207.486 1.31055 208.975 1.50977C210.475 1.69727 211.816 2.02539 213 2.49414C214.195 2.95117 215.174 3.57227 215.936 4.35742C216.709 5.14258 217.16 6.12109 217.289 7.29297L212.719 8.55859C212.719 7.85547 212.479 7.28125 211.998 6.83594C211.529 6.37891 210.902 6.02148 210.117 5.76367C209.344 5.49414 208.453 5.30664 207.445 5.20117C206.449 5.0957 205.418 5.04297 204.352 5.04297C203.309 5.04297 202.283 5.08984 201.275 5.18359C200.268 5.27734 199.359 5.45312 198.551 5.71094C197.754 5.96875 197.109 6.32617 196.617 6.7832C196.125 7.24023 195.879 7.83203 195.879 8.55859V12.7422H217.289V21.8477C217.289 22.6328 217.113 23.3359 216.762 23.957C216.422 24.5664 215.947 25.0996 215.338 25.5566C214.74 26.002 214.025 26.3828 213.193 26.6992C212.373 27.0039 211.482 27.25 210.521 27.4375C209.572 27.625 208.57 27.7598 207.516 27.8418C206.461 27.9238 205.406 27.9648 204.352 27.9648C203.273 27.9648 202.213 27.9238 201.17 27.8418C200.127 27.7598 199.137 27.625 198.199 27.4375C197.262 27.25 196.389 27.0039 195.58 26.6992C194.783 26.3828 194.08 26.002 193.471 25.5566C192.861 25.0996 192.369 24.5664 191.994 23.957C191.619 23.3477 191.391 22.6445 191.309 21.8477L195.879 20.582C195.879 21.3086 196.125 21.9004 196.617 22.3574C197.109 22.8145 197.754 23.1719 198.551 23.4297C199.359 23.6875 200.268 23.8633 201.275 23.957C202.283 24.0508 203.309 24.0977 204.352 24.0977C205.418 24.0977 206.449 24.0508 207.445 23.957C208.453 23.8516 209.344 23.6699 210.117 23.4121C210.902 23.1426 211.529 22.7793 211.998 22.3223C212.479 21.8652 212.719 21.2852 212.719 20.582V16.293H191.309V7.29297C191.309 6.50781 191.479 5.81641 191.818 5.21875C192.17 4.60938 192.645 4.08203 193.242 3.63672C193.852 3.17969 194.572 2.79883 195.404 2.49414C196.236 2.17773 197.133 1.92578 198.094 1.73828C199.066 1.55078 200.08 1.41602 201.135 1.33398C202.201 1.25195 203.273 1.21094 204.352 1.21094ZM243.445 1.42188C243.305 2.47656 243.234 3.57812 243.234 4.72656C243.234 6.28516 243.346 7.88477 243.568 9.52539C243.791 11.166 244.131 12.7539 244.588 14.2891C245.045 15.8242 245.619 17.2598 246.311 18.5957C247.014 19.9316 247.84 21.0625 248.789 21.9883C249.762 20.9219 250.594 19.7148 251.285 18.3672C251.988 17.0195 252.562 15.6074 253.008 14.1309C253.453 12.6543 253.781 11.1426 253.992 9.5957C254.203 8.03711 254.309 6.50781 254.309 5.00781C254.309 4.375 254.291 3.75977 254.256 3.16211C254.232 2.56445 254.191 1.97266 254.133 1.38672C255.152 1.43359 256.066 1.50391 256.875 1.59766C257.695 1.69141 258.398 1.78516 258.984 1.87891C259.664 1.99609 260.273 2.11328 260.812 2.23047V6.66016C260.438 6.53125 260.068 6.43164 259.705 6.36133C259.342 6.2793 258.973 6.19141 258.598 6.09766C258.598 8.61719 258.352 10.9551 257.859 13.1113C257.379 15.2559 256.705 17.2598 255.838 19.123C254.971 20.9863 253.934 22.7148 252.727 24.3086C251.531 25.9023 250.219 27.3906 248.789 28.7734C247.348 27.3906 246.029 25.9023 244.834 24.3086C243.65 22.7148 242.637 20.9863 241.793 19.123C240.949 17.2598 240.293 15.2559 239.824 13.1113C239.355 10.9551 239.121 8.61719 239.121 6.09766C238.699 6.19141 238.295 6.2793 237.908 6.36133C237.521 6.43164 237.141 6.53125 236.766 6.66016V2.19531C236.766 2.20703 236.918 2.18359 237.223 2.125C237.539 2.06641 237.984 1.99609 238.559 1.91406C239.145 1.82031 239.848 1.73242 240.668 1.65039C241.488 1.55664 242.414 1.48047 243.445 1.42188ZM277.055 1.24609C278.871 1.24609 280.787 1.31055 282.803 1.43945C284.818 1.56836 286.922 1.82031 289.113 2.19531V6.66016C288.328 6.4375 287.432 6.22656 286.424 6.02734C285.557 5.86328 284.514 5.70508 283.295 5.55273C282.076 5.40039 280.699 5.30078 279.164 5.25391V23.9922C280.699 23.9453 282.076 23.8457 283.295 23.6934C284.514 23.541 285.557 23.3828 286.424 23.2188C287.432 23.0195 288.328 22.8086 289.113 22.5859V27.0508C286.922 27.4258 284.818 27.6777 282.803 27.8066C280.787 27.9355 278.871 28 277.055 28C275.285 28 273.393 27.9355 271.377 27.8066C269.361 27.6777 267.246 27.4258 265.031 27.0508V22.5859C265.816 22.8086 266.713 23.0195 267.721 23.2188C268.588 23.3828 269.631 23.541 270.85 23.6934C272.068 23.8457 273.445 23.9453 274.98 23.9922V5.25391C273.445 5.30078 272.068 5.40039 270.85 5.55273C269.631 5.70508 268.588 5.86328 267.721 6.02734C266.713 6.22656 265.816 6.4375 265.031 6.66016V2.19531C267.246 1.82031 269.361 1.56836 271.377 1.43945C273.393 1.31055 275.285 1.24609 277.055 1.24609ZM306.48 1.21094C308.074 1.21094 309.615 1.31055 311.104 1.50977C312.604 1.69727 313.945 2.02539 315.129 2.49414C316.324 2.95117 317.303 3.57227 318.064 4.35742C318.838 5.14258 319.289 6.12109 319.418 7.29297L314.848 8.55859C314.848 7.85547 314.607 7.28125 314.127 6.83594C313.658 6.37891 313.031 6.02148 312.246 5.76367C311.473 5.49414 310.582 5.30664 309.574 5.20117C308.578 5.0957 307.547 5.04297 306.48 5.04297C305.438 5.04297 304.412 5.08984 303.404 5.18359C302.396 5.27734 301.488 5.45312 300.68 5.71094C299.883 5.96875 299.238 6.32617 298.746 6.7832C298.254 7.24023 298.008 7.83203 298.008 8.55859V12.7422H319.418V21.8477C319.418 22.6328 319.242 23.3359 318.891 23.957C318.551 24.5664 318.076 25.0996 317.467 25.5566C316.869 26.002 316.154 26.3828 315.322 26.6992C314.502 27.0039 313.611 27.25 312.65 27.4375C311.701 27.625 310.699 27.7598 309.645 27.8418C308.59 27.9238 307.535 27.9648 306.48 27.9648C305.402 27.9648 304.342 27.9238 303.299 27.8418C302.256 27.7598 301.266 27.625 300.328 27.4375C299.391 27.25 298.518 27.0039 297.709 26.6992C296.912 26.3828 296.209 26.002 295.6 25.5566C294.99 25.0996 294.498 24.5664 294.123 23.957C293.748 23.3477 293.52 22.6445 293.438 21.8477L298.008 20.582C298.008 21.3086 298.254 21.9004 298.746 22.3574C299.238 22.8145 299.883 23.1719 300.68 23.4297C301.488 23.6875 302.396 23.8633 303.404 23.957C304.412 24.0508 305.438 24.0977 306.48 24.0977C307.547 24.0977 308.578 24.0508 309.574 23.957C310.582 23.8516 311.473 23.6699 312.246 23.4121C313.031 23.1426 313.658 22.7793 314.127 22.3223C314.607 21.8652 314.848 21.2852 314.848 20.582V16.293H293.438V7.29297C293.438 6.50781 293.607 5.81641 293.947 5.21875C294.299 4.60938 294.773 4.08203 295.371 3.63672C295.98 3.17969 296.701 2.79883 297.533 2.49414C298.365 2.17773 299.262 1.92578 300.223 1.73828C301.195 1.55078 302.209 1.41602 303.264 1.33398C304.33 1.25195 305.402 1.21094 306.48 1.21094ZM330.387 20.8281C330.387 21.3438 330.58 21.8242 330.967 22.2695C331.365 22.7148 331.922 23.1074 332.637 23.4473C333.363 23.7754 334.23 24.0391 335.238 24.2383C336.258 24.4258 337.395 24.5195 338.648 24.5195C339.926 24.5195 341.074 24.4199 342.094 24.2207C343.113 24.0098 343.975 23.7344 344.678 23.3945C345.393 23.0547 345.938 22.6621 346.312 22.2168C346.688 21.7715 346.875 21.3086 346.875 20.8281V1.63281C347.883 1.67969 348.832 1.75 349.723 1.84375C350.613 1.92578 351.404 2.01367 352.096 2.10742C352.893 2.21289 353.637 2.32422 354.328 2.44141V6.94141C354.047 6.84766 353.643 6.73633 353.115 6.60742C352.588 6.4668 352.008 6.34375 351.375 6.23828V22.1289C351.375 23.0547 351.035 23.8984 350.355 24.6602C349.688 25.4219 348.773 26.0781 347.613 26.6289C346.465 27.168 345.117 27.5898 343.57 27.8945C342.023 28.1992 340.383 28.3516 338.648 28.3516C336.902 28.3516 335.256 28.1992 333.709 27.8945C332.162 27.5898 330.809 27.168 329.648 26.6289C328.488 26.0781 327.568 25.4219 326.889 24.6602C326.221 23.8984 325.887 23.0547 325.887 22.1289V6.23828C325.254 6.36719 324.668 6.49609 324.129 6.625C323.602 6.74219 323.203 6.84766 322.934 6.94141V2.44141C323.602 2.32422 324.34 2.21289 325.148 2.10742C325.828 2.01367 326.619 1.92578 327.521 1.84375C328.424 1.75 329.379 1.67969 330.387 1.63281V20.8281ZM371.238 0.542969C371.965 0.542969 372.703 0.619141 373.453 0.771484C374.203 0.912109 374.871 1.10547 375.457 1.35156C376.488 3.15625 377.426 4.99609 378.27 6.87109C379.125 8.73438 379.887 10.6562 380.555 12.6367C381.012 12.6953 381.475 12.7598 381.943 12.8301C382.412 12.8887 382.887 12.9531 383.367 13.0234V17.5234L381.855 17.1016C382.277 18.8477 382.635 20.6289 382.928 22.4453C383.221 24.2617 383.438 26.1133 383.578 28H379.395C379.219 25.9844 378.926 23.9922 378.516 22.0234C378.105 20.0547 377.637 18.168 377.109 16.3633C375.973 16.2695 374.889 16.1992 373.857 16.1523C372.838 16.1055 371.965 16.082 371.238 16.082C370.266 16.082 369.299 16.0996 368.338 16.1348C367.377 16.1699 366.41 16.2344 365.438 16.3281C364.91 18.1328 364.436 20.0195 364.014 21.9883C363.604 23.957 363.316 25.9609 363.152 28H358.969C359.098 26.1133 359.303 24.2676 359.584 22.4629C359.877 20.6582 360.234 18.8828 360.656 17.1367L359.285 17.5234V13.0234L361.992 12.6367C362.648 10.6562 363.398 8.73438 364.242 6.87109C365.098 4.99609 366.047 3.15625 367.09 1.35156C367.676 1.10547 368.338 0.912109 369.076 0.771484C369.814 0.619141 370.535 0.542969 371.238 0.542969ZM371.238 12.1094C371.941 12.1094 372.668 12.1211 373.418 12.1445C374.168 12.1562 374.941 12.1914 375.738 12.25C375.141 10.6211 374.549 9.20898 373.963 8.01367C373.389 6.80664 372.891 5.875 372.469 5.21875C372.258 5.125 372.059 5.06055 371.871 5.02539C371.684 4.99023 371.473 4.97266 371.238 4.97266C370.863 4.97266 370.477 5.05469 370.078 5.21875C369.656 5.875 369.152 6.80664 368.566 8.01367C367.98 9.20898 367.395 10.6211 366.809 12.25C367.582 12.1914 368.338 12.1562 369.076 12.1445C369.826 12.1211 370.547 12.1094 371.238 12.1094ZM396.41 5.32422C395.719 5.38281 395.086 5.44727 394.512 5.51758C393.938 5.57617 393.387 5.64062 392.859 5.71094V23.5C393.633 23.6055 394.488 23.6992 395.426 23.7812C396.363 23.8633 397.383 23.9219 398.484 23.957C398.836 23.9805 399.182 23.9922 399.521 23.9922C399.861 23.9922 400.207 23.9922 400.559 23.9922C400.91 23.9922 401.262 23.9922 401.613 23.9922C401.965 23.9922 402.316 23.9805 402.668 23.957C403.98 23.9219 405.146 23.8574 406.166 23.7637C407.197 23.6582 408.129 23.5234 408.961 23.3594C409.172 22.1992 409.348 20.793 409.488 19.1406H413.496C413.426 20.3945 413.326 21.6777 413.197 22.9902C413.068 24.291 412.887 25.6328 412.652 27.0156C410.426 27.3906 408.305 27.6426 406.289 27.7715C404.285 27.9004 402.398 27.9648 400.629 27.9648C398.812 27.9648 396.891 27.9004 394.863 27.7715C392.836 27.6426 390.727 27.3906 388.535 27.0156V2.16016C389.93 1.91406 391.277 1.73242 392.578 1.61523C393.891 1.48633 395.168 1.38672 396.41 1.31641V5.32422ZM428.227 1.24609C430.043 1.24609 431.959 1.31055 433.975 1.43945C435.99 1.56836 438.094 1.82031 440.285 2.19531V6.66016C439.5 6.4375 438.604 6.22656 437.596 6.02734C436.729 5.86328 435.686 5.70508 434.467 5.55273C433.248 5.40039 431.871 5.30078 430.336 5.25391V23.9922C431.871 23.9453 433.248 23.8457 434.467 23.6934C435.686 23.541 436.729 23.3828 437.596 23.2188C438.604 23.0195 439.5 22.8086 440.285 22.5859V27.0508C438.094 27.4258 435.99 27.6777 433.975 27.8066C431.959 27.9355 430.043 28 428.227 28C426.457 28 424.564 27.9355 422.549 27.8066C420.533 27.6777 418.418 27.4258 416.203 27.0508V22.5859C416.988 22.8086 417.885 23.0195 418.893 23.2188C419.76 23.3828 420.803 23.541 422.021 23.6934C423.24 23.8457 424.617 23.9453 426.152 23.9922V5.25391C424.617 5.30078 423.24 5.40039 422.021 5.55273C420.803 5.70508 419.76 5.86328 418.893 6.02734C417.885 6.22656 416.988 6.4375 416.203 6.66016V2.19531C418.418 1.82031 420.533 1.56836 422.549 1.43945C424.564 1.31055 426.457 1.24609 428.227 1.24609ZM457.195 1.24609C459 1.24609 460.91 1.31055 462.926 1.43945C464.953 1.56836 467.074 1.82031 469.289 2.19531V6.66016C468.715 7.53906 468.035 8.46484 467.25 9.4375C466.465 10.3984 465.609 11.3828 464.684 12.3906C463.758 13.3867 462.773 14.3945 461.73 15.4141C460.688 16.4336 459.609 17.4355 458.496 18.4199C457.383 19.3926 456.252 20.3359 455.104 21.25C453.967 22.1523 452.836 22.9961 451.711 23.7812C452.73 23.8867 453.879 23.957 455.156 23.9922C455.496 24.0156 455.836 24.0273 456.176 24.0273C456.527 24.0273 456.879 24.0273 457.23 24.0273C457.582 24.0273 457.928 24.0273 458.268 24.0273C458.607 24.0273 458.965 24.0156 459.34 23.9922C460.629 23.957 461.789 23.8867 462.82 23.7812C463.863 23.6641 464.789 23.5352 465.598 23.3945C465.703 22.8086 465.797 22.1699 465.879 21.4785C465.961 20.7754 466.031 20.0078 466.09 19.1758H470.098C470.039 20.4297 469.945 21.7129 469.816 23.0254C469.699 24.3262 469.523 25.668 469.289 27.0508C467.074 27.4258 464.959 27.6777 462.943 27.8066C460.928 27.9355 459.047 28 457.301 28C455.484 28 453.562 27.9355 451.535 27.8066C449.508 27.6777 447.398 27.4258 445.207 27.0508V22.5859C446.906 21.6133 448.617 20.5 450.34 19.2461C452.074 17.9805 453.768 16.6211 455.42 15.168C457.072 13.7148 458.666 12.1855 460.201 10.5801C461.748 8.96289 463.184 7.31641 464.508 5.64062C464.145 5.59375 463.752 5.54688 463.33 5.5C462.92 5.45312 462.434 5.41211 461.871 5.37695C461.309 5.33008 460.652 5.29492 459.902 5.27148C459.164 5.23633 458.297 5.21875 457.301 5.21875C456.141 5.21875 455.139 5.23633 454.295 5.27148C453.451 5.30664 452.707 5.35352 452.062 5.41211C451.418 5.4707 450.838 5.54102 450.322 5.62305C449.818 5.69336 449.32 5.76953 448.828 5.85156C448.734 6.4375 448.646 7.08789 448.564 7.80273C448.494 8.50586 448.43 9.26172 448.371 10.0703H444.363C444.434 8.82812 444.527 7.55664 444.645 6.25586C444.773 4.94336 444.961 3.58984 445.207 2.19531C447.398 1.82031 449.502 1.56836 451.518 1.43945C453.533 1.31055 455.426 1.24609 457.195 1.24609ZM486.867 0.542969C487.594 0.542969 488.332 0.619141 489.082 0.771484C489.832 0.912109 490.5 1.10547 491.086 1.35156C492.117 3.15625 493.055 4.99609 493.898 6.87109C494.754 8.73438 495.516 10.6562 496.184 12.6367C496.641 12.6953 497.104 12.7598 497.572 12.8301C498.041 12.8887 498.516 12.9531 498.996 13.0234V17.5234L497.484 17.1016C497.906 18.8477 498.264 20.6289 498.557 22.4453C498.85 24.2617 499.066 26.1133 499.207 28H495.023C494.848 25.9844 494.555 23.9922 494.145 22.0234C493.734 20.0547 493.266 18.168 492.738 16.3633C491.602 16.2695 490.518 16.1992 489.486 16.1523C488.467 16.1055 487.594 16.082 486.867 16.082C485.895 16.082 484.928 16.0996 483.967 16.1348C483.006 16.1699 482.039 16.2344 481.066 16.3281C480.539 18.1328 480.064 20.0195 479.643 21.9883C479.232 23.957 478.945 25.9609 478.781 28H474.598C474.727 26.1133 474.932 24.2676 475.213 22.4629C475.506 20.6582 475.863 18.8828 476.285 17.1367L474.914 17.5234V13.0234L477.621 12.6367C478.277 10.6562 479.027 8.73438 479.871 6.87109C480.727 4.99609 481.676 3.15625 482.719 1.35156C483.305 1.10547 483.967 0.912109 484.705 0.771484C485.443 0.619141 486.164 0.542969 486.867 0.542969ZM486.867 12.1094C487.57 12.1094 488.297 12.1211 489.047 12.1445C489.797 12.1562 490.57 12.1914 491.367 12.25C490.77 10.6211 490.178 9.20898 489.592 8.01367C489.018 6.80664 488.52 5.875 488.098 5.21875C487.887 5.125 487.688 5.06055 487.5 5.02539C487.312 4.99023 487.102 4.97266 486.867 4.97266C486.492 4.97266 486.105 5.05469 485.707 5.21875C485.285 5.875 484.781 6.80664 484.195 8.01367C483.609 9.20898 483.023 10.6211 482.438 12.25C483.211 12.1914 483.967 12.1562 484.705 12.1445C485.455 12.1211 486.176 12.1094 486.867 12.1094ZM514.184 1.28125C516 1.28125 517.91 1.3457 519.914 1.47461C521.918 1.60352 524.027 1.85547 526.242 2.23047V6.69531C525.457 6.47266 524.561 6.26172 523.553 6.0625C522.686 5.89844 521.643 5.74023 520.424 5.58789C519.205 5.43555 517.828 5.33594 516.293 5.28906V28.0352H512.109V5.28906C510.574 5.33594 509.197 5.43555 507.979 5.58789C506.76 5.74023 505.717 5.89844 504.85 6.0625C503.842 6.26172 502.945 6.47266 502.16 6.69531V2.23047C504.352 1.85547 506.461 1.60352 508.488 1.47461C510.516 1.3457 512.414 1.28125 514.184 1.28125ZM541.535 1.24609C543.352 1.24609 545.268 1.31055 547.283 1.43945C549.299 1.56836 551.402 1.82031 553.594 2.19531V6.66016C552.809 6.4375 551.912 6.22656 550.904 6.02734C550.037 5.86328 548.994 5.70508 547.775 5.55273C546.557 5.40039 545.18 5.30078 543.645 5.25391V23.9922C545.18 23.9453 546.557 23.8457 547.775 23.6934C548.994 23.541 550.037 23.3828 550.904 23.2188C551.912 23.0195 552.809 22.8086 553.594 22.5859V27.0508C551.402 27.4258 549.299 27.6777 547.283 27.8066C545.268 27.9355 543.352 28 541.535 28C539.766 28 537.873 27.9355 535.857 27.8066C533.842 27.6777 531.727 27.4258 529.512 27.0508V22.5859C530.297 22.8086 531.193 23.0195 532.201 23.2188C533.068 23.3828 534.111 23.541 535.33 23.6934C536.549 23.8457 537.926 23.9453 539.461 23.9922V5.25391C537.926 5.30078 536.549 5.40039 535.33 5.55273C534.111 5.70508 533.068 5.86328 532.201 6.02734C531.193 6.22656 530.297 6.4375 529.512 6.66016V2.19531C531.727 1.82031 533.842 1.56836 535.857 1.43945C537.873 1.31055 539.766 1.24609 541.535 1.24609ZM571.664 0.789062C572.836 0.789062 573.973 0.859375 575.074 1C576.176 1.14062 577.207 1.3457 578.168 1.61523C579.129 1.87305 580.008 2.18945 580.805 2.56445C581.602 2.92773 582.281 3.34375 582.844 3.8125C583.406 4.28125 583.846 4.79688 584.162 5.35938C584.479 5.91016 584.637 6.49609 584.637 7.11719V22.1992C584.637 22.8203 584.479 23.4121 584.162 23.9746C583.846 24.5254 583.406 25.0352 582.844 25.5039C582.281 25.9727 581.602 26.3945 580.805 26.7695C580.008 27.1328 579.129 27.4492 578.168 27.7188C577.207 27.9766 576.176 28.1758 575.074 28.3164C573.973 28.457 572.836 28.5273 571.664 28.5273C570.492 28.5273 569.355 28.457 568.254 28.3164C567.164 28.1758 566.139 27.9766 565.178 27.7188C564.229 27.4492 563.355 27.1328 562.559 26.7695C561.762 26.3945 561.076 25.9727 560.502 25.5039C559.939 25.0352 559.5 24.5254 559.184 23.9746C558.879 23.4121 558.727 22.8203 558.727 22.1992V7.11719C558.727 6.49609 558.879 5.91016 559.184 5.35938C559.5 4.79688 559.939 4.28125 560.502 3.8125C561.076 3.34375 561.762 2.92773 562.559 2.56445C563.355 2.18945 564.229 1.87305 565.178 1.61523C566.139 1.3457 567.164 1.14062 568.254 1C569.355 0.859375 570.492 0.789062 571.664 0.789062ZM580.031 8.45312C580.031 7.94922 579.838 7.47461 579.451 7.0293C579.064 6.57227 578.508 6.17383 577.781 5.83398C577.066 5.48242 576.193 5.20703 575.162 5.00781C574.131 4.79688 572.965 4.69141 571.664 4.69141C570.41 4.69141 569.273 4.79102 568.254 4.99023C567.234 5.17773 566.355 5.44141 565.617 5.78125C564.891 6.12109 564.328 6.51953 563.93 6.97656C563.531 7.43359 563.332 7.92578 563.332 8.45312V20.8633C563.332 21.3789 563.531 21.8652 563.93 22.3223C564.328 22.7793 564.891 23.1777 565.617 23.5176C566.355 23.8574 567.234 24.127 568.254 24.3262C569.273 24.5254 570.41 24.625 571.664 24.625C572.965 24.625 574.131 24.5254 575.162 24.3262C576.193 24.1152 577.066 23.834 577.781 23.4824C578.508 23.1309 579.064 22.7324 579.451 22.2871C579.838 21.8301 580.031 21.3555 580.031 20.8633V8.45312ZM608.859 21.0742V1.49219C609.867 1.52734 610.811 1.5918 611.689 1.68555C612.58 1.76758 613.365 1.85547 614.045 1.94922C614.83 2.06641 615.562 2.18359 616.242 2.30078V6.76562C615.305 6.48438 614.227 6.23828 613.008 6.02734V23.7461C613.641 23.6523 614.221 23.541 614.748 23.4121C615.287 23.2832 615.785 23.1484 616.242 23.0078V27.1562C615.398 27.2969 614.631 27.4141 613.939 27.5078C613.248 27.6016 612.604 27.6777 612.006 27.7363C611.42 27.7949 610.869 27.8418 610.354 27.877C609.838 27.9121 609.34 27.9414 608.859 27.9648L597.082 8.41797V27.9648C596.602 27.9414 596.104 27.9121 595.588 27.877C595.072 27.8418 594.521 27.7949 593.936 27.7363C593.35 27.6777 592.711 27.6016 592.02 27.5078C591.328 27.4141 590.566 27.2969 589.734 27.1562V22.6914C590.602 22.9727 591.68 23.2188 592.969 23.4297V5.67578C592.348 5.78125 591.768 5.89844 591.229 6.02734C590.689 6.15625 590.191 6.28516 589.734 6.41406V2.30078C590.391 2.18359 591.111 2.06641 591.896 1.94922C592.564 1.85547 593.344 1.76758 594.234 1.68555C595.125 1.5918 596.074 1.52734 597.082 1.49219L608.859 21.0742Z" fill="url(#paint0_linear)"/>
<defs>
<linearGradient id="paint0_linear" x1="308.5" y1="-13" x2="308.5" y2="32" gradientUnits="userSpaceOnUse">
<stop offset="0.078125" stop-color="white"/>
<stop offset="1" stop-color="white" stop-opacity="0"/>
</linearGradient>
</defs>
</svg>
